<?xml version="1.0" standalone="no"?><!DOCTYPE svg PUBLIC "-//W3C//DTD SVG 1.1//EN" "http://www.w3.org/Graphics/SVG/1.1/DTD/svg11.dtd"><svg t="1748504904133" class="icon" viewBox="0 0 1024 1024" version="1.1" xmlns="http://www.w3.org/2000/svg" p-id="5958" xmlns:xlink="http://www.w3.org/1999/xlink" width="64" height="64"><path d="M832 0c105.984 0 192 86.016 192 192v640c0 105.984-86.016 192-192 192H192c-105.984 0-192-86.016-192-192V192c0-105.984 86.016-192 192-192zM500.736 819.712h-299.52v38.912h299.52v-38.912z m195.584-392.704c-34.304 0-62.464 8.704-84.992 25.6-23.552 17.92-35.328 42.496-35.328 73.728 0 31.232 12.288 54.784 36.864 71.168 9.216 5.12 33.792 14.848 73.728 29.184 35.328 12.288 56.32 19.968 64 24.064 20.48 11.264 30.72 27.136 30.72 46.592 0.32 15.488-7.968 29.888-21.504 37.376-14.848 9.216-34.304 13.824-57.856 13.824-26.624 0-46.592-5.632-59.904-16.384-14.336-12.288-23.552-32.256-27.136-60.416h-48.64c2.56 44.544 16.896 77.312 43.52 98.304 22.528 17.408 52.736 26.112 91.648 26.112 40.448 0 71.68-8.704 94.208-26.624 22.528-18.944 33.792-44.032 34.304-74.752 0-32.768-13.824-58.368-41.472-76.8-11.776-8.192-39.424-19.456-83.968-34.816-29.184-9.728-48.128-16.896-55.808-22.016-15.872-9.216-24.064-22.016-24.064-37.888 0-17.92 6.656-30.72 20.48-38.912 11.264-6.656 27.648-10.24 48.64-10.24 24.064 0 42.496 5.12 54.784 15.36 12.288 9.728 20.48 26.112 25.088 49.664h48.64c-3.072-38.912-15.872-67.072-38.4-85.504-20.48-17.92-49.664-26.624-87.552-26.624z m-350.72 5.12a181.248 181.248 0 1 0 0 362.496 181.248 181.248 0 0 0 0-362.496z m0 43.456a137.728 137.728 0 1 1-137.728 137.792 137.728 137.728 0 0 1 137.728-137.792zM798.208 268.8h-18.432l32.768 80.384-14.336 33.28h17.92L860.672 268.8h-18.432l-21.504 59.904-22.528-59.904z m-448-2.048a44.352 44.352 0 0 0-25.088 6.144 28.8 28.8 0 0 0-12.288 21.504h16.896a16.96 16.96 0 0 1 6.656-10.752 24.384 24.384 0 0 1 13.312-3.072c12.288 0 18.432 5.632 18.432 17.408v2.048h-18.432a52.128 52.128 0 0 0-27.136 6.144c-8.192 5.12-12.288 12.8-12.288 23.04a22.112 22.112 0 0 0 7.68 17.408c4.608 4.608 11.264 6.656 19.968 6.656 6.496 0.192 12.96-1.024 18.944-3.584 4.736-2.56 8.896-6.08 12.288-10.24v11.776h15.36V299.008c0-10.24-2.56-17.92-7.68-23.04-5.632-6.144-14.336-9.216-26.624-9.216z m289.792 0c-11.2-0.416-22.08 4.064-29.696 12.288a45.312 45.312 0 0 0-11.264 30.72c-0.48 11.232 3.392 22.24 10.752 30.72 7.84 8.224 18.848 12.704 30.208 12.288 11.36 0.416 22.368-4.064 30.208-12.288 7.296-8.544 11.136-19.52 10.752-30.72a45.248 45.248 0 0 0-11.264-30.72c-7.168-8.192-17.408-12.288-29.696-12.288z m98.816 0a30.464 30.464 0 0 0-13.824 3.072 30.464 30.464 0 0 0-10.752 9.216V268.8h-16.896v82.432h16.896V302.08a23.68 23.68 0 0 1 6.656-15.872 15.2 15.2 0 0 1 12.288-5.12c12.8 0 19.456 7.168 19.456 20.992v49.152h16.896V300.544c0-22.528-10.24-33.792-30.72-33.792z m-522.24-29.184h-17.408v113.152h17.408V300.032h59.392v50.688h17.408V237.568h-17.408v47.616H216.576V237.568z m225.28 28.672a20.032 20.032 0 0 0-13.312 4.608 31.68 31.68 0 0 0-7.68 10.24V268.8h-16.896v81.92h16.896V307.2a24.064 24.064 0 0 1 6.144-17.408 19.104 19.104 0 0 1 13.824-6.144c3.968 0 7.936 0.48 11.776 1.536v-16.896a23.744 23.744 0 0 0-10.752-2.048z m112.64 0.512a27.648 27.648 0 0 0-13.824 3.072c-4.736 2.56-8.8 6.24-11.776 10.752-5.12-9.216-13.824-13.824-26.112-13.824a28.576 28.576 0 0 0-22.528 11.264V268.8h-16.896v81.92h16.896V301.568c0-6.144 1.536-11.264 5.12-14.848a14.912 14.912 0 0 1 12.8-6.144c11.264 0 16.896 6.656 16.896 19.456v50.688h16.896V300.032a20.992 20.992 0 0 1 4.608-14.336 14.848 14.848 0 0 1 11.776-5.12c6.656 0 11.264 1.536 14.336 4.096 2.56 3.072 4.096 8.192 4.096 14.848v51.2h16.896V296.96a30.016 30.016 0 0 0-1.856-11.84 27.744 27.744 0 0 0-27.328-18.368zM368.64 312.32v4.608a21.6 21.6 0 0 1-7.168 16.896 29.056 29.056 0 0 1-18.944 6.144 16.8 16.8 0 0 1-10.752-3.072 10.24 10.24 0 0 1-3.584-8.192c0-10.752 7.68-16.384 23.04-16.384h17.408zM640 280.576a21.856 21.856 0 0 1 18.432 9.216c3.904 6.08 5.856 13.248 5.632 20.48a36.48 36.48 0 0 1-5.632 19.968 21.888 21.888 0 0 1-18.432 9.216 20.384 20.384 0 0 1-17.92-9.216 34.144 34.144 0 0 1-5.632-19.968c-0.32-7.232 1.664-14.4 5.632-20.48a20.384 20.384 0 0 1 17.92-9.216z" fill="#377CFF" p-id="5959"></path></svg>